<svg width="120" height="120" viewBox="0 0 120 120" fill="none" xmlns="http://www.w3.org/2000/svg">
<path opacity="0.5" d="M117.8 120H74.5999C73.3999 120 72.3999 119 72.3999 117.8V74.5999C72.3999 73.3999 73.3999 72.3999 74.5999 72.3999H117.8C119 72.3999 120 73.3999 120 74.5999V117.8C120 119 119 120 117.8 120Z" fill="#BDC5D1"/>
<path d="M107.5 111H67.2C65.3 111 63.8 109.5 63.8 107.6V67.1998C63.8 65.2998 65.3 63.7998 67.2 63.7998H107.5C109.4 63.7998 110.9 65.2998 110.9 67.1998V107.5C110.9 109.5 109.4 111 107.5 111Z" fill="#ABC32F"/>
<path opacity="0.5" d="M95.5 97.2999H84C83.1 97.2999 82.3 96.4999 82.3 95.5999V84.0999C82.3 83.1999 83.1 82.3999 84 82.3999H95.5C96.4 82.3999 97.2 83.1999 97.2 84.0999V95.5999C97.2 96.4999 96.5 97.2999 95.5 97.2999Z" fill="white"/>
<path d="M90.6 92.4H79.2C78.3 92.4 77.5 91.6 77.5 90.7V79.2C77.5 78.3 78.3 77.5 79.2 77.5H90.7C91.6 77.5 92.4 78.3 92.4 79.2V90.7C92.3 91.6 91.6 92.4 90.6 92.4Z" fill="white"/>
<path d="M28.8 118.2C43.6012 118.2 55.6 106.201 55.6 91.4001C55.6 76.5989 43.6012 64.6001 28.8 64.6001C13.9988 64.6001 2 76.5989 2 91.4001C2 106.201 13.9988 118.2 28.8 118.2Z" stroke="#BDC5D1" stroke-width="3" stroke-miterlimit="10" stroke-linecap="round" stroke-linejoin="round"/>
<path opacity="0.5" d="M31.3 105.5C37.3752 105.5 42.3 100.575 42.3 94.5C42.3 88.4249 37.3752 83.5 31.3 83.5C25.2249 83.5 20.3 88.4249 20.3 94.5C20.3 100.575 25.2249 105.5 31.3 105.5Z" fill="#BDC5D1"/>
<path d="M26.3 99.2998C32.3752 99.2998 37.3 94.3749 37.3 88.2998C37.3 82.2247 32.3752 77.2998 26.3 77.2998C20.2249 77.2998 15.3 82.2247 15.3 88.2998C15.3 94.3749 20.2249 99.2998 26.3 99.2998Z" fill="#ABC32F"/>
<path d="M61.0999 49.2001L88.1999 2.2001C88.6999 1.4001 89.8999 1.4001 90.3999 2.2001L117.5 49.2001C118 50.0001 117.4 51.1001 116.4 51.1001H62.1999C61.1999 51.1001 60.5999 50.0001 61.0999 49.2001Z" stroke="#BDC5D1" stroke-width="3" stroke-miterlimit="10" stroke-linecap="round" stroke-linejoin="round"/>
<path opacity="0.5" d="M86.1001 41.2002L94.2001 27.2002C94.5001 26.7002 95.2001 26.7002 95.5001 27.2002L103.6 41.2002C103.9 41.7002 103.5 42.3002 103 42.3002H86.7001C86.1001 42.3002 85.8001 41.7002 86.1001 41.2002Z" fill="#BDC5D1"/>
<path d="M79.3 36.5L87.4 22.5C87.7 22 88.4 22 88.7 22.5L96.8 36.5C97.1 37 96.7 37.6 96.2 37.6H80C79.4 37.6 79.1 37 79.3 36.5Z" fill="#ABC32F"/>
</svg>
