<svg width="120" height="120" viewBox="0 0 120 120" fill="none" xmlns="http://www.w3.org/2000/svg">
<path d="M15.1001 75.6002V11.0002L19.5001 6.7002L23.8001 11.0002L28.1001 6.7002L32.4001 11.0002L36.7001 6.7002L41.0001 11.0002L45.3001 6.7002L49.6001 11.0002L53.9001 6.7002L58.2001 11.0002L62.5001 6.7002L66.8001 11.0002L71.1001 6.7002L75.4001 11.0002L79.7001 6.7002L84.0001 11.0002L89.0001 6.7002L93.4001 11.0002V107.5C93.4001 110.7 96.0001 113.3 99.2001 113.3C102.4 113.3 105 110.7 105 107.5V13.2002H99.2001V106.3" stroke="#BDC5D1" stroke-width="3" stroke-miterlimit="10" stroke-linecap="round" stroke-linejoin="round"/>
<path d="M99.1001 113.3H26.1001" stroke="#BDC5D1" stroke-width="3" stroke-miterlimit="10" stroke-linecap="round" stroke-linejoin="round"/>
<g opacity="0.5">
<path opacity="0.5" d="M78.0999 44.4999H39.1999C35.0999 44.4999 31.8999 41.1999 31.8999 37.1999C31.8999 33.0999 35.1999 29.8999 39.1999 29.8999H78.0999C82.1999 29.8999 85.3999 33.1999 85.3999 37.1999C85.4999 41.1999 82.1999 44.4999 78.0999 44.4999Z" fill="#BDC5D1"/>
</g>
<path d="M73.0999 37.9999H34.1999C30.0999 37.9999 26.8999 34.6999 26.8999 30.6999C26.8999 26.5999 30.1999 23.3999 34.1999 23.3999H73.0999C77.1999 23.3999 80.3999 26.6999 80.3999 30.6999C80.4999 34.6999 77.1999 37.9999 73.0999 37.9999Z" fill="#ABC32F"/>
<path d="M65.4001 32.3001H41.9001C41.0001 32.3001 40.3 31.6001 40.3 30.7001C40.3 29.8001 41.0001 29.1001 41.9001 29.1001H65.4001C66.3001 29.1001 67 29.8001 67 30.7001C67 31.5001 66.3001 32.3001 65.4001 32.3001Z" fill="white"/>
<g opacity="0.5">
<path opacity="0.5" d="M3.80005 86H33.1" stroke="#BDC5D1" stroke-width="3" stroke-miterlimit="10" stroke-linecap="round" stroke-linejoin="round"/>
<path opacity="0.5" d="M3.80005 93.5H33.1" stroke="#BDC5D1" stroke-width="3" stroke-miterlimit="10" stroke-linecap="round" stroke-linejoin="round"/>
<path opacity="0.5" d="M3.80005 101.1H18.3" stroke="#BDC5D1" stroke-width="3" stroke-miterlimit="10" stroke-linecap="round" stroke-linejoin="round"/>
<path opacity="0.5" d="M27.3 101.1H33.1" stroke="#BDC5D1" stroke-width="3" stroke-miterlimit="10" stroke-linecap="round" stroke-linejoin="round"/>
</g>
<path opacity="0.5" d="M54.3999 90.6001V102.8" stroke="#BDC5D1" stroke-width="3" stroke-miterlimit="10" stroke-linecap="round" stroke-linejoin="round"/>
<path opacity="0.5" d="M62.3 87.1001V102.8" stroke="#BDC5D1" stroke-width="3" stroke-miterlimit="10" stroke-linecap="round" stroke-linejoin="round"/>
<path opacity="0.5" d="M70.3 89.7002V102.8" stroke="#BDC5D1" stroke-width="3" stroke-miterlimit="10" stroke-linecap="round" stroke-linejoin="round"/>
<path opacity="0.5" d="M78.3 81.7998V102.8" stroke="#BDC5D1" stroke-width="3" stroke-miterlimit="10" stroke-linecap="round" stroke-linejoin="round"/>
<path d="M50.6001 86.0002L64.2001 75.6002L69.0001 81.3002L80.9001 71.2002" stroke="#ABC32F" stroke-width="3" stroke-miterlimit="10" stroke-linecap="round" stroke-linejoin="round"/>
</svg>
