<svg width="805" height="281" viewBox="0 0 805 281" fill="none" xmlns="http://www.w3.org/2000/svg">
<path d="M744.1 192.35C743.4 191.65 743.05 190.8 743.05 189.8C743.05 188.8 743.4 187.95 744.1 187.25C744.8 186.517 745.65 186.15 746.65 186.15C747.65 186.15 748.5 186.517 749.2 187.25C749.933 187.95 750.3 188.8 750.3 189.8C750.3 190.8 749.933 191.65 749.2 192.35C748.5 193.05 747.65 193.4 746.65 193.4C745.65 193.4 744.8 193.05 744.1 192.35ZM774.165 192.45C774.965 192.45 775.799 191.983 776.665 191.05L777.415 191.65C777.182 192.117 776.665 192.533 775.865 192.9C775.065 193.267 774.182 193.45 773.215 193.45C770.182 193.45 768.665 192.083 768.665 189.35C768.665 188.183 768.965 186.1 769.565 183.1C770.165 180.1 770.465 178.133 770.465 177.2C770.465 175.767 769.782 175.05 768.415 175.05C767.315 175.05 766.249 175.767 765.215 177.2C764.215 178.633 763.382 180.6 762.715 183.1L761.015 192.45C762.049 192.35 762.899 191.883 763.565 191.05L764.315 191.65C763.315 192.85 762.065 193.45 760.565 193.45C759.065 193.45 757.882 193.067 757.015 192.3C756.182 191.533 755.765 190.533 755.765 189.3C755.765 188.833 756.032 187 756.565 183.8L758.215 174.55C757.215 174.65 756.382 175.117 755.715 175.95L754.965 175.35C755.965 174.15 757.215 173.55 758.715 173.55C760.249 173.55 761.432 173.933 762.265 174.7C763.099 175.467 763.515 176.55 763.515 177.95V178.25C764.882 175.117 767.015 173.55 769.915 173.55C771.882 173.55 773.415 174.117 774.515 175.25C775.615 176.35 776.165 177.883 776.165 179.85C776.165 180.883 775.849 182.883 775.215 185.85C774.582 188.783 774.232 190.983 774.165 192.45ZM796.216 198.45C797.416 198.45 798.45 197.983 799.316 197.05L800.016 197.65C799.216 198.783 797.95 199.35 796.216 199.35C795.483 199.35 794.733 199.267 793.966 199.1C791.7 201.167 788.8 202.2 785.266 202.2C783.166 202.2 781.533 201.833 780.366 201.1C779.233 200.4 778.666 199.467 778.666 198.3C778.666 197.167 779.016 196.25 779.716 195.55C780.45 194.883 781.733 194.55 783.566 194.55C785.4 194.55 787.816 195.3 790.816 196.8L792.366 188.5C790.866 191.267 788.933 192.65 786.566 192.65C782.033 192.65 779.766 190.417 779.766 185.95C779.766 182.217 780.7 179.217 782.566 176.95C784.466 174.683 786.883 173.55 789.816 173.55C791.516 173.55 792.833 174.067 793.766 175.1C794.033 175.4 794.3 175.85 794.566 176.45L795.016 174C797.483 174 799.283 173.9 800.416 173.7L801.066 173.55L797.766 192C797.266 194.6 796.266 196.7 794.766 198.3C795.2 198.4 795.683 198.45 796.216 198.45ZM785.416 187.5C785.416 189.033 785.566 190.067 785.866 190.6C786.166 191.1 786.733 191.35 787.566 191.35C788.4 191.35 789.25 190.9 790.116 190C790.983 189.1 791.6 188.267 791.966 187.5C792.366 186.7 792.7 185.933 792.966 185.2L794.016 179.45V179.1C794.016 176.033 792.616 174.5 789.816 174.5C788.75 174.5 787.75 175.95 786.816 178.85C785.883 181.75 785.416 184.633 785.416 187.5ZM785.066 201.2C787.733 201.2 789.533 200.05 790.466 197.75L789.766 197.4C789.366 197.2 789.116 197.067 789.016 197C788.95 196.967 788.733 196.867 788.366 196.7C788 196.533 787.733 196.417 787.566 196.35C787.4 196.317 787.133 196.233 786.766 196.1C786.433 195.967 786.15 195.867 785.916 195.8C785.683 195.767 785.416 195.717 785.116 195.65C784.616 195.55 783.883 195.5 782.916 195.5C781.95 195.5 781.166 195.733 780.566 196.2C780 196.667 779.716 197.35 779.716 198.25C779.716 199.15 780.2 199.867 781.166 200.4C782.133 200.933 783.433 201.2 785.066 201.2Z" fill="#EAB20B"/>
<path d="M345.2 155.12C346.48 155.12 347.813 154.373 349.2 152.88L350.4 153.84C350.027 154.587 349.2 155.253 347.92 155.84C346.64 156.427 345.227 156.72 343.68 156.72C338.827 156.72 336.4 154.533 336.4 150.16C336.4 148.293 336.88 144.96 337.84 140.16C338.8 135.36 339.28 132.213 339.28 130.72C339.28 128.427 338.187 127.28 336 127.28C332.693 127.28 329.92 131.52 327.68 140L324.8 156H315.2L320.48 126.48C318.88 126.64 317.547 127.387 316.48 128.72L315.28 127.76C316.88 125.84 318.88 124.88 321.28 124.88C323.733 124.88 325.627 125.493 326.96 126.72C328.293 127.947 328.96 129.68 328.96 131.92V132.16C331.04 127.307 334.187 124.88 338.4 124.88C341.387 124.88 343.733 125.707 345.44 127.36C347.2 128.96 348.16 131.227 348.32 134.16C349.333 131.227 350.613 128.96 352.16 127.36C353.707 125.707 355.947 124.88 358.88 124.88C361.813 124.88 364.16 125.787 365.92 127.6C367.68 129.36 368.56 131.813 368.56 134.96C368.56 136.613 368.053 139.813 367.04 144.56C366.027 149.253 365.467 152.773 365.36 155.12C366.64 155.12 367.973 154.373 369.36 152.88L370.56 153.84C370.187 154.587 369.36 155.253 368.08 155.84C366.8 156.427 365.387 156.72 363.84 156.72C358.987 156.72 356.56 154.533 356.56 150.16C356.56 148.293 357.04 144.96 358 140.16C358.96 135.36 359.44 132.213 359.44 130.72C359.44 128.427 358.347 127.28 356.16 127.28C352.32 127.28 349.227 132.987 346.88 144.4C345.867 149.253 345.307 152.827 345.2 155.12ZM379.289 126.48C378.009 126.48 376.676 127.227 375.289 128.72L374.089 127.76C374.463 127.013 375.289 126.347 376.569 125.76C377.849 125.173 379.263 124.88 380.809 124.88C385.663 124.88 388.089 127.067 388.089 131.44C388.089 133.307 387.583 136.373 386.569 140.64C385.556 144.853 385.049 147.707 385.049 149.2C385.049 151.76 386.116 153.04 388.249 153.04C390.009 153.04 391.716 151.84 393.369 149.44C395.076 147.04 396.463 143.813 397.529 139.76L400.169 125.6C404.116 125.6 406.996 125.44 408.809 125.12L409.849 124.88L404.809 153.2C403.849 158.693 401.609 162.987 398.089 166.08C394.623 169.173 390.116 170.72 384.569 170.72C381.209 170.72 378.596 170.133 376.729 168.96C374.916 167.84 374.009 166.347 374.009 164.48C374.009 162.667 374.569 161.2 375.689 160.08C376.809 159.013 378.383 158.48 380.409 158.48C382.489 158.48 384.409 158.8 386.169 159.44C387.929 160.133 389.209 160.533 390.009 160.64L389.849 162.08C388.943 161.973 387.636 161.6 385.929 160.96C384.223 160.32 382.516 160 380.809 160C379.156 160 377.876 160.373 376.969 161.12C376.116 161.867 375.689 162.933 375.689 164.32C375.689 165.76 376.463 166.907 378.009 167.76C379.556 168.667 381.476 169.12 383.769 169.12C389.316 169.12 392.729 165.787 394.009 159.12L396.009 148.08C393.769 152.987 390.383 155.44 385.849 155.44C382.756 155.44 380.356 154.56 378.649 152.8C376.996 151.04 376.169 148.56 376.169 145.36C376.169 143.707 376.649 140.747 377.609 136.48C378.623 132.16 379.183 128.827 379.289 126.48Z" fill="#ABC32F"/>
<path d="M323.6 231.9C318.467 231.9 314.567 230.633 311.9 228.1C309.233 225.5 307.9 222.267 307.9 218.4C307.9 214.467 308.233 211.133 308.9 208.4C309.633 205.6 310.8 202.933 312.4 200.4C314 197.8 316.4 195.767 319.6 194.3C322.867 192.833 326.9 192.1 331.7 192.1C336.567 192.1 340.333 193.4 343 196C345.733 198.533 347.1 202.033 347.1 206.5C347.1 214.1 345.067 220.233 341 224.9C337 229.567 331.2 231.9 323.6 231.9ZM319.2 221.6C319.2 226.933 320.733 229.6 323.8 229.6C326.933 229.6 329.7 226.933 332.1 221.6C334.567 216.2 335.8 209.8 335.8 202.4C335.8 196.8 334.267 194 331.2 194C328.2 194 325.433 196.567 322.9 201.7C320.433 206.767 319.2 213.4 319.2 221.6ZM390.741 229.9C392.341 229.9 394.007 228.967 395.741 227.1L397.241 228.3C396.774 229.233 395.741 230.067 394.141 230.8C392.541 231.533 390.774 231.9 388.841 231.9C382.774 231.9 379.741 229.167 379.741 223.7C379.741 221.367 380.341 217.2 381.541 211.2C382.741 205.2 383.341 201.267 383.341 199.4C383.341 196.533 381.974 195.1 379.241 195.1C377.041 195.1 374.907 196.533 372.841 199.4C370.841 202.267 369.174 206.2 367.841 211.2L364.441 229.9C366.507 229.7 368.207 228.767 369.541 227.1L371.041 228.3C369.041 230.7 366.541 231.9 363.541 231.9C360.541 231.9 358.174 231.133 356.441 229.6C354.774 228.067 353.941 226.067 353.941 223.6C353.941 222.667 354.474 219 355.541 212.6L358.841 194.1C356.841 194.3 355.174 195.233 353.841 196.9L352.341 195.7C354.341 193.3 356.841 192.1 359.841 192.1C362.907 192.1 365.274 192.867 366.941 194.4C368.607 195.933 369.441 198.1 369.441 200.9V201.5C372.174 195.233 376.441 192.1 382.241 192.1C386.174 192.1 389.241 193.233 391.441 195.5C393.641 197.7 394.741 200.767 394.741 204.7C394.741 206.767 394.107 210.767 392.841 216.7C391.574 222.567 390.874 226.967 390.741 229.9ZM420.243 227.4C419.376 228.533 418.176 229.567 416.643 230.5C415.176 231.433 413.243 231.9 410.843 231.9C408.443 231.9 406.41 231.133 404.743 229.6C403.076 228.067 402.243 225.9 402.243 223.1C402.243 222.567 402.31 221.7 402.443 220.5L408.943 184.5C410.143 177.9 411.776 173.2 413.843 170.4C415.976 167.6 418.776 166.2 422.243 166.2C424.643 166.2 426.61 167.1 428.143 168.9C429.743 170.7 430.543 173.433 430.543 177.1C430.543 180.767 429.11 186 426.243 192.8C423.443 199.6 422.043 204.567 422.043 207.7H420.243C420.243 204.167 421.643 199.133 424.443 192.6C427.243 186 428.643 180.733 428.643 176.8C428.643 174.4 428.076 172.333 426.943 170.6C425.876 168.867 424.543 168 422.943 168C422.876 169.733 421.71 177.533 419.443 191.4C417.243 205.2 415.043 218.033 412.843 229.9C414.71 229.9 416.443 228.933 418.043 227C419.643 225.067 420.776 223.133 421.443 221.2L422.543 218.2L424.343 219C424.143 219.933 423.61 221.3 422.743 223.1C421.943 224.833 421.11 226.267 420.243 227.4ZM448.275 228.3C446.275 230.7 443.775 231.9 440.775 231.9C437.775 231.9 435.408 231.133 433.675 229.6C432.008 228.067 431.175 226.067 431.175 223.6C431.175 222.733 431.708 219.1 432.775 212.7L436.075 194.8H431.875L432.075 193H436.375C441.308 193 444.942 192.8 447.275 192.4L448.675 192.1L441.775 229.9C443.775 229.7 445.442 228.767 446.775 227.1L448.275 228.3ZM439.475 182.5C438.075 181.1 437.375 179.4 437.375 177.4C437.375 175.4 438.075 173.7 439.475 172.3C440.875 170.833 442.575 170.1 444.575 170.1C446.575 170.1 448.275 170.833 449.675 172.3C451.142 173.7 451.875 175.4 451.875 177.4C451.875 179.4 451.142 181.1 449.675 182.5C448.275 183.9 446.575 184.6 444.575 184.6C442.575 184.6 440.875 183.9 439.475 182.5ZM492.694 229.9C494.294 229.9 495.96 228.967 497.694 227.1L499.194 228.3C498.727 229.233 497.694 230.067 496.094 230.8C494.494 231.533 492.727 231.9 490.794 231.9C484.727 231.9 481.694 229.167 481.694 223.7C481.694 221.367 482.294 217.2 483.494 211.2C484.694 205.2 485.294 201.267 485.294 199.4C485.294 196.533 483.927 195.1 481.194 195.1C478.994 195.1 476.86 196.533 474.794 199.4C472.794 202.267 471.127 206.2 469.794 211.2L466.394 229.9C468.46 229.7 470.16 228.767 471.494 227.1L472.994 228.3C470.994 230.7 468.494 231.9 465.494 231.9C462.494 231.9 460.127 231.133 458.394 229.6C456.727 228.067 455.894 226.067 455.894 223.6C455.894 222.667 456.427 219 457.494 212.6L460.794 194.1C458.794 194.3 457.127 195.233 455.794 196.9L454.294 195.7C456.294 193.3 458.794 192.1 461.794 192.1C464.86 192.1 467.227 192.867 468.894 194.4C470.56 195.933 471.394 198.1 471.394 200.9V201.5C474.127 195.233 478.394 192.1 484.194 192.1C488.127 192.1 491.194 193.233 493.394 195.5C495.594 197.7 496.694 200.767 496.694 204.7C496.694 206.767 496.06 210.767 494.794 216.7C493.527 222.567 492.827 226.967 492.694 229.9ZM525.496 192.1C533.963 192.1 538.196 195.467 538.196 202.2C538.196 206.4 536.196 209.6 532.196 211.8C528.263 213.933 522.629 215.033 515.296 215.1C515.163 217.5 515.096 219.4 515.096 220.8C515.096 223.8 515.763 226.033 517.096 227.5C518.496 228.9 520.229 229.6 522.296 229.6C524.363 229.6 526.229 229.2 527.896 228.4C529.629 227.6 530.996 226.667 531.996 225.6C532.996 224.467 533.863 223.3 534.596 222.1C535.929 219.9 536.596 218.5 536.596 217.9L538.396 218.7C538.196 219.767 537.596 221.2 536.596 223C535.596 224.733 534.496 226.167 533.296 227.3C532.096 228.433 530.329 229.5 527.996 230.5C525.663 231.433 523.063 231.9 520.196 231.9C514.796 231.9 510.696 230.633 507.896 228.1C505.163 225.5 503.796 221.967 503.796 217.5C503.796 209.567 505.763 203.367 509.696 198.9C513.629 194.367 518.896 192.1 525.496 192.1ZM535.696 202.2C535.696 200 535.029 198.2 533.696 196.8C532.429 195.333 530.496 194.6 527.896 194.6C525.363 194.6 522.863 196.133 520.396 199.2C517.996 202.267 516.396 206.8 515.596 212.8C528.996 212.733 535.696 209.2 535.696 202.2Z" fill="#050505"/>
<path d="M567.3 229.3C573.9 229.3 577.2 224.433 577.2 214.7C577.2 212.3 576.833 209.467 576.1 206.2C575.433 202.933 575.033 200.9 574.9 200.1C570.833 204.3 566.267 206.833 561.2 207.7V205.3C566 204.233 570.5 201.5 574.7 197.1V196.7C574.7 195.1 574.933 193.533 575.4 192C575.867 190.467 576.333 189.333 576.8 188.6L577.5 187.5H579.9C579.9 190.433 580.367 193.133 581.3 195.6C582.233 198 583.267 199.967 584.4 201.5C585.533 202.967 586.567 204.933 587.5 207.4C588.433 209.8 588.9 212.467 588.9 215.4C588.9 220.133 587.1 224.067 583.5 227.2C579.967 230.333 575.7 231.9 570.7 231.9C565.7 231.9 561.9 230.767 559.3 228.5C556.767 226.233 555.5 223.633 555.5 220.7C555.5 217.7 556.233 215.567 557.7 214.3C559.167 212.967 560.9 212.3 562.9 212.3C564.9 212.3 566.533 212.967 567.8 214.3C569.133 215.567 569.8 217.233 569.8 219.3C569.8 221.3 569.167 223 567.9 224.4C566.633 225.8 565 226.5 563 226.5C562.133 226.5 561.233 226.367 560.3 226.1C561.767 228.233 564.1 229.3 567.3 229.3ZM632.216 229.9C633.816 229.9 635.483 228.967 637.216 227.1L638.716 228.3C638.25 229.233 637.216 230.067 635.616 230.8C634.016 231.533 632.25 231.9 630.316 231.9C624.25 231.9 621.216 229.167 621.216 223.7C621.216 221.367 621.816 217.2 623.016 211.2C624.216 205.2 624.816 201.267 624.816 199.4C624.816 196.533 623.45 195.1 620.716 195.1C618.45 195.1 616.25 196.633 614.116 199.7C612.05 202.767 610.35 206.933 609.016 212.2L605.716 231H593.716L604.816 168.2C602.816 168.4 601.15 169.333 599.816 171L598.316 169.8C600.316 167.4 602.816 166.2 605.816 166.2C608.883 166.2 611.25 166.967 612.916 168.5C614.583 170.033 615.416 172.2 615.416 175C615.416 175.533 615.35 176.4 615.216 177.6L611.016 201.3C613.75 195.167 617.983 192.1 623.716 192.1C627.65 192.1 630.716 193.233 632.916 195.5C635.116 197.7 636.216 200.767 636.216 204.7C636.216 206.767 635.583 210.767 634.316 216.7C633.05 222.567 632.35 226.967 632.216 229.9ZM659.147 231.9C654.014 231.9 650.114 230.633 647.447 228.1C644.78 225.5 643.447 222.267 643.447 218.4C643.447 214.467 643.78 211.133 644.447 208.4C645.18 205.6 646.347 202.933 647.947 200.4C649.547 197.8 651.947 195.767 655.147 194.3C658.414 192.833 662.447 192.1 667.247 192.1C672.114 192.1 675.88 193.4 678.547 196C681.28 198.533 682.647 202.033 682.647 206.5C682.647 214.1 680.614 220.233 676.547 224.9C672.547 229.567 666.747 231.9 659.147 231.9ZM654.747 221.6C654.747 226.933 656.28 229.6 659.347 229.6C662.48 229.6 665.247 226.933 667.647 221.6C670.114 216.2 671.347 209.8 671.347 202.4C671.347 196.8 669.814 194 666.747 194C663.747 194 660.98 196.567 658.447 201.7C655.98 206.767 654.747 213.4 654.747 221.6ZM707.588 231.8C704.521 231.8 702.088 231.1 700.288 229.7L697.288 245.8H685.388L694.788 193.4C692.788 193.6 691.121 194.533 689.788 196.2L688.287 195C690.288 192.6 692.754 191.4 695.688 191.4C698.688 191.4 701.021 192.133 702.688 193.6C704.354 195 705.254 197 705.388 199.6C708.321 194.6 712.054 192.1 716.588 192.1C721.121 192.1 724.588 193.4 726.988 196C729.388 198.533 730.588 202.033 730.588 206.5C730.588 214.367 728.454 220.567 724.188 225.1C719.921 229.567 714.388 231.8 707.588 231.8ZM700.988 225.7C702.121 228.233 704.254 229.5 707.387 229.5C710.588 229.5 713.354 226.833 715.688 221.5C718.088 216.167 719.288 209.8 719.288 202.4C719.288 199.333 718.954 197.233 718.288 196.1C717.688 194.967 716.554 194.4 714.888 194.4C713.221 194.4 711.488 195.4 709.688 197.4C707.954 199.4 706.688 201.3 705.888 203.1C705.088 204.833 704.688 205.833 704.688 206.1H704.588L700.988 225.7Z" fill="black"/>
<path d="M288 94V89H283H146.5L10 89L5 89L5 94C5.00001 141.909 19.6666 188.038 46.0206 222.211C72.3969 256.414 108.49 276 146.5 276C184.51 276 220.603 256.414 246.979 222.211C273.333 188.038 288 141.909 288 94Z" stroke="black" stroke-width="10"/>
<path d="M193.59 108C187.289 108 182.179 103.258 182.179 97.4108L193.59 38.7092C193.59 19.6126 165.276 7.39567 144.5 7.39567C123.723 7.39567 95.4104 19.6126 95.4104 38.7092L106.821 97.4108C106.821 103.258 101.711 108 95.4104 108C89.1084 108 84 103.258 84 97.4108V38.7092C84 7.93369 111.141 0 144.5 0C177.859 0 205 7.93475 205 38.7092V97.4108C205 103.259 199.89 108 193.59 108Z" fill="black" fill-opacity="0.96"/>
<path d="M168.609 222.864C163.405 222.41 158.523 220.932 155.62 217.523C150.599 211.624 151.383 202.874 157.33 197.958C163.081 193.195 172.332 194.003 177.17 199.692C183.836 207.519 189.255 213.55 194.716 219.591L190.248 220.725C188.517 221.165 178.033 223.688 168.609 222.864V222.864Z" fill="#ABC32F"/>
<path d="M148.507 200.537L141.046 191.773L153.976 181.075L161.515 189.931C158.636 190.619 155.932 191.851 153.7 193.7C151.419 195.585 149.705 197.937 148.507 200.537Z" fill="#ABC32F"/>
<path d="M141.4 169.796L108.408 131.04L95.4808 141.737L128.473 180.493L141.4 169.796Z" fill="#ABC32F"/>
<path d="M109.617 201.61L105 217L119.62 210.075L176.563 156.21L165.79 146.977L109.617 201.61Z" fill="#FFC106"/>
<path d="M184.588 145.277L176.801 138.406C175.501 137.258 173.508 137.382 172.36 138.683L166.975 144.785L178.101 154.671L183.488 149.284C184.636 147.984 185.888 146.425 184.588 145.277Z" fill="#FFC106"/>
<rect x="91" y="124" width="108" height="107" rx="22" stroke="black" stroke-width="4"/>
</svg>
